<?xml version="1.0" encoding="utf-8"?>
<!-- Generator: Adobe Illustrator 17.0.0, SVG Export Plug-In . SVG Version: 6.00 Build 0)  -->
<!DOCTYPE svg PUBLIC "-//W3C//DTD SVG 1.1//EN" "http://www.w3.org/Graphics/SVG/1.1/DTD/svg11.dtd">
<svg version="1.1" xmlns="http://www.w3.org/2000/svg" xmlns:xlink="http://www.w3.org/1999/xlink" x="0px" y="0px" width="40px"
	 height="40px" viewBox="0 0 40 40" enable-background="new 0 0 40 40" xml:space="preserve">
<g id="Livello_1">
	<g>
		<g>
			<path fill="#ffffff" d="M24.73,28.146c0.131,0,0.262-0.051,0.36-0.153l7.359-7.631c0.187-0.193,0.187-0.5,0-0.693l-7.391-7.662
				c-0.193-0.2-0.508-0.202-0.707-0.014c-0.199,0.192-0.205,0.509-0.013,0.707l7.056,7.315l-7.024,7.284
				c-0.192,0.198-0.186,0.515,0.013,0.707C24.48,28.099,24.605,28.146,24.73,28.146z"/>
		</g>
		<g>
			<path fill="#ffffff" d="M7.91,20.515h24.18c0.276,0,0.5-0.224,0.5-0.5c0-0.276-0.224-0.5-0.5-0.5H7.91
				c-0.276,0-0.5,0.224-0.5,0.5C7.41,20.292,7.634,20.515,7.91,20.515z"/>
		</g>
	</g>
</g>
<g id="Livello_2">
</g>
</svg>
