<?xml version="1.0" encoding="utf-8"?>
<!-- Generator: Adobe Illustrator 17.0.0, SVG Export Plug-In . SVG Version: 6.00 Build 0)  -->
<!DOCTYPE svg PUBLIC "-//W3C//DTD SVG 1.1//EN" "http://www.w3.org/Graphics/SVG/1.1/DTD/svg11.dtd">
<svg version="1.1" xmlns="http://www.w3.org/2000/svg" xmlns:xlink="http://www.w3.org/1999/xlink" x="0px" y="0px" width="40px"
	 height="40px" viewBox="0 0 40 40" enable-background="new 0 0 40 40" xml:space="preserve">
<g id="Livello_1">
	<g>
		<g>
			<path fill="#ffffff" d="M15.269,28.146c-0.131,0-0.262-0.051-0.36-0.153L7.55,20.362c-0.187-0.193-0.187-0.5,0-0.693l7.391-7.662
				c0.193-0.2,0.508-0.202,0.707-0.014c0.199,0.192,0.205,0.509,0.013,0.707l-7.056,7.315l7.024,7.284
				c0.192,0.198,0.186,0.515-0.013,0.707C15.519,28.1,15.394,28.146,15.269,28.146z"/>
		</g>
		<g>
			<path fill="#ffffff" d="M32.09,20.516H7.91c-0.276,0-0.5-0.224-0.5-0.5s0.224-0.5,0.5-0.5h24.18c0.276,0,0.5,0.224,0.5,0.5
				S32.366,20.516,32.09,20.516z"/>
		</g>
	</g>
</g>
<g id="Livello_2">
</g>
</svg>
