<?xml version="1.0" encoding="utf-8"?>
<!-- Generator: Adobe Illustrator 16.0.4, SVG Export Plug-In . SVG Version: 6.00 Build 0)  -->
<!DOCTYPE svg PUBLIC "-//W3C//DTD SVG 1.1//EN" "http://www.w3.org/Graphics/SVG/1.1/DTD/svg11.dtd">
<svg version="1.1" xmlns="http://www.w3.org/2000/svg" xmlns:xlink="http://www.w3.org/1999/xlink" x="0px" y="0px" width="40px"
	 height="40px" viewBox="0 0 40 40" enable-background="new 0 0 40 40" xml:space="preserve">
<g id="Livello_1">
</g>
<g id="Livello_2">
	<g>

			<path fill="none" stroke="#FFFFFF" stroke-width="0.9569" stroke-linecap="round" stroke-linejoin="round" stroke-miterlimit="10" d="
			M23.889,23.175V9.11c0-1.611-1.307-2.916-2.916-2.916h-1.945c-1.61,0-2.916,1.305-2.916,2.916v14.064
			c-1.308,1.107-2.139,2.756-2.139,4.603c0,3.328,2.699,6.028,6.028,6.028c3.327,0,6.026-2.7,6.026-6.028
			C26.027,25.931,25.196,24.282,23.889,23.175z"/>
		<g>
			<circle fill="#FFFFFF" cx="20" cy="27.97" r="3.694"/>
			<path fill="#FFFFFF" d="M21.361,25.054c0,0.753-0.609,1.361-1.36,1.361l0,0c-0.753,0-1.362-0.608-1.362-1.361v-8.166
				c0-0.751,0.609-1.36,1.362-1.36l0,0c0.751,0,1.36,0.609,1.36,1.36V25.054z"/>
		</g>

			<line fill="none" stroke="#FFFFFF" stroke-width="0.9569" stroke-linecap="round" stroke-linejoin="round" stroke-miterlimit="10" x1="15.881" y1="13.972" x2="18.992" y2="13.972"/>

			<line fill="none" stroke="#FFFFFF" stroke-width="0.9569" stroke-linecap="round" stroke-linejoin="round" stroke-miterlimit="10" x1="15.881" y1="11.638" x2="18.992" y2="11.638"/>
	</g>
</g>
</svg>
