<?xml version="1.0" encoding="utf-8"?>
<!-- Generator: Adobe Illustrator 16.0.4, SVG Export Plug-In . SVG Version: 6.00 Build 0)  -->
<!DOCTYPE svg PUBLIC "-//W3C//DTD SVG 1.1//EN" "http://www.w3.org/Graphics/SVG/1.1/DTD/svg11.dtd">
<svg version="1.1" id="Livello_1" xmlns="http://www.w3.org/2000/svg" xmlns:xlink="http://www.w3.org/1999/xlink" x="0px" y="0px"
	 width="40px" height="40px" viewBox="0 0 40 40" enable-background="new 0 0 40 40" xml:space="preserve">
<g>
	<path fill="none" stroke="#FFFFFF" stroke-miterlimit="10" d="M27.234,20.599c0-3.963-3.213-7.176-7.176-7.176
		s-7.176,3.213-7.176,7.176c0,2.887,1.705,5.374,4.164,6.514l0.252,3.458c0,0.407,0.329,0.737,0.736,0.737h4.047
		c0.407,0,0.736-0.33,0.736-0.737l0.252-3.458C25.527,25.973,27.234,23.485,27.234,20.599z"/>
	<path fill="none" stroke="#FFFFFF" stroke-miterlimit="10" d="M22.93,33.907c0,0.406-0.33,0.736-0.736,0.736h-4.269
		c-0.407,0-0.735-0.33-0.735-0.736v-1.178c0-0.406,0.328-0.735,0.735-0.735h4.269c0.406,0,0.736,0.329,0.736,0.735V33.907z"/>
	<line fill="none" stroke="#FFFFFF" stroke-miterlimit="10" x1="20.059" y1="11.539" x2="20.059" y2="5.356"/>
	<line fill="none" stroke="#FFFFFF" stroke-miterlimit="10" x1="26.957" y1="15.147" x2="31.328" y2="10.776"/>
	<line fill="none" stroke="#FFFFFF" stroke-miterlimit="10" x1="29.485" y1="21.403" x2="35.668" y2="21.403"/>
	<line fill="none" stroke="#FFFFFF" stroke-miterlimit="10" x1="13.045" y1="15.147" x2="8.674" y2="10.776"/>
	<line fill="none" stroke="#FFFFFF" stroke-miterlimit="10" x1="10.516" y1="21.403" x2="4.332" y2="21.403"/>
</g>
</svg>
