<?xml version="1.0" encoding="utf-8"?>
<!-- Generator: Adobe Illustrator 17.0.0, SVG Export Plug-In . SVG Version: 6.00 Build 0)  -->
<!DOCTYPE svg PUBLIC "-//W3C//DTD SVG 1.1//EN" "http://www.w3.org/Graphics/SVG/1.1/DTD/svg11.dtd">
<svg version="1.1" id="Livello_1" xmlns="http://www.w3.org/2000/svg" xmlns:xlink="http://www.w3.org/1999/xlink" x="0px" y="0px"
	 width="116.494px" height="116.494px" viewBox="0 0 116.494 116.494" enable-background="new 0 0 116.494 116.494"
	 xml:space="preserve">
<g>
	<g>
		<circle fill="#EC4882" cx="58.247" cy="58.247" r="53.247"/>
		<path fill="#76FF03" d="M58.248,116.494C26.13,116.494,0,90.364,0,58.247C0,26.129,26.13,0,58.248,0
			c32.117,0,58.246,26.129,58.246,58.247C116.494,90.364,90.365,116.494,58.248,116.494z M58.248,10C31.644,10,10,31.644,10,58.247
			s21.644,48.247,48.248,48.247c26.603,0,48.246-21.644,48.246-48.247S84.851,10,58.248,10z"/>
	</g>
	<g>
		<g>
			<path fill="#76FF03" d="M74.853,31.679c1.215-1.156,1.977-2.784,1.977-4.594c0-2.984-2.064-5.48-4.84-6.156
				c0.297-0.734,0.465-1.535,0.465-2.375c0-3.504-2.84-6.344-6.344-6.344c-2.334,0-4.367,1.264-5.469,3.141
				c-1.102-1.877-3.137-3.141-5.469-3.141c-3.504,0-6.344,2.84-6.344,6.344c0,0.084,0.01,0.168,0.012,0.251
				c-3.322,0.323-5.918,3.124-5.918,6.53c0,1.346,0.406,2.597,1.102,3.638c-1.844,1.162-3.07,3.21-3.07,5.55
				c0,3.176,2.256,5.824,5.254,6.432c-0.693,1.04-1.098,2.287-1.098,3.631c0,3.624,2.938,6.562,6.562,6.562
				c2.434,0,4.555-1.328,5.688-3.298v20.359h1.641V48.483c1.074,1.979,3.17,3.32,5.578,3.32c3.504,0,6.344-2.84,6.344-6.344
				c0-0.907-0.193-1.769-0.537-2.549c0.092-0.1,3.709,0.115,5.568-4.205C77.023,36.224,76.068,32.835,74.853,31.679z"/>
		</g>
		<g>
			<path fill="#76FF03" d="M56.978,49.616c-1.266,1.909-3.102,3.156-5.564,3.156c-3.904,0-7.07-3.165-7.07-7.07
				c0-1.447-0.143-2.73,0.604-3.852c-1.65-0.334-2.51-1.304-3.523-2.568c-0.006,0.08-0.012,0.16-0.012,0.24
				c0,0.049,0.004,0.096,0.006,0.143c-1.887,0.185-3.359,1.773-3.359,3.708c0,0.765,0.23,1.474,0.625,2.065
				c-1.047,0.66-1.744,1.821-1.744,3.15c0,1.803,1.281,3.307,2.982,3.651c-0.393,0.59-0.623,1.299-0.623,2.061
				c0,2.058,1.668,3.726,3.727,3.726c1.381,0,2.586-0.754,3.228-1.871V68.21h0.932V56.515c0.609,1.123,1.799,1.885,3.166,1.885
				c1.988,0,3.602-1.613,3.602-3.602c0-0.516-0.109-1.004-0.305-1.447c0.053-0.056,0.102-0.113,0.152-0.172
				C55.738,53.128,56.967,51.563,56.978,49.616z"/>
		</g>
		<g>
			<path fill="#76FF03" d="M75.353,41.003c2.024-0.328,3.281,0.636,3.281,2.57c0,0.765-0.428,1.273-0.822,1.865
				c1.045,0.66,1.742,1.821,1.742,3.15c0,1.803-1.281,3.307-2.982,3.651c0.393,0.59,0.623,1.299,0.623,2.061
				c0,2.058-1.668,3.726-3.725,3.726c-1.383,0-2.586-0.754-3.229-1.871V68.21h-0.932V56.515c-0.611,1.123-1.801,1.885-3.168,1.885
				c-1.988,0-3.602-1.613-3.602-3.602c0-0.516,0.111-1.004,0.305-1.447c-0.051-0.056,0.035,0.043-0.016-0.016
				c-1.938-0.051-3.518-1.58-3.527-3.527c1.266,1.909,3.316,2.965,5.777,2.965c3.906,0,7.07-3.165,7.07-7.07
				c0-1.447-0.023-1.172-0.408-2.141c1.648-0.334,2.508-1.305,3.523-2.568"/>
		</g>
	</g>
	<g>
		<circle fill="#76FF03" cx="58.248" cy="86.219" r="23.5"/>
	</g>
	<g>
		<g>
			<path fill="#EC4882" d="M68.291,91.722l-6.059-0.573c-0.382-0.035-0.712-0.278-0.869-0.644l-2.17-5.26
				c-0.348-0.868-1.58-0.868-1.927,0l-2.153,5.26c-0.139,0.365-0.486,0.608-0.867,0.644l-6.061,0.573
				c-0.902,0.086-1.267,1.215-0.59,1.822l4.566,4.011c0.295,0.261,0.416,0.643,0.33,1.024l-1.371,5.625
				c-0.209,0.886,0.746,1.615,1.545,1.146l5.053-2.969c0.329-0.191,0.729-0.191,1.059,0l5.053,2.969
				c0.799,0.469,1.754-0.243,1.545-1.146l-1.354-5.625c-0.087-0.382,0.034-0.764,0.329-1.024l4.566-4.011
				C69.576,92.937,69.194,91.808,68.291,91.722z"/>
		</g>
	</g>
</g>
</svg>
