<?xml version="1.0" encoding="utf-8"?>
<!-- Generator: Adobe Illustrator 16.0.4, SVG Export Plug-In . SVG Version: 6.00 Build 0)  -->
<!DOCTYPE svg PUBLIC "-//W3C//DTD SVG 1.1//EN" "http://www.w3.org/Graphics/SVG/1.1/DTD/svg11.dtd">
<svg version="1.1" xmlns="http://www.w3.org/2000/svg" xmlns:xlink="http://www.w3.org/1999/xlink" x="0px" y="0px" width="40px"
	 height="40px" viewBox="0 0 40 40" enable-background="new 0 0 40 40" xml:space="preserve">
<g id="Livello_1">
</g>
<g id="Livello_2">
	<g>
		<path fill="none" stroke="#72749E" stroke-linecap="round" stroke-linejoin="round" stroke-miterlimit="10" d="M14.842,31.821
			c3.125,0,14.463-0.333,17.748-0.333s5.947-2.663,5.947-5.948c0-2.901-2.078-5.318-4.828-5.841
			c0.207-0.605,0.318-1.254,0.318-1.929c0-3.284-2.662-5.946-5.947-5.946c-1.92,0-3.627,0.91-4.715,2.324
			c-1.578-3.52-5.111-5.97-9.217-5.97c-5.574,0-10.096,4.521-10.096,10.095c0,0.816,0.098,1.609,0.281,2.369
			c-1.721,1.041-2.871,2.932-2.871,5.09c0,3.284,2.662,5.946,5.947,5.946c2.373,0,4.041,0.107,7.291,0.107"/>
		<g>
			<text transform="matrix(1 0 0 1 12.3477 24.0342)" fill="#7275A0" font-family="'Lato-Regular'" font-size="9">CO</text>
			<text transform="matrix(0.583 0 0 0.583 25.5645 27.0312)" fill="#7275A0" font-family="'Lato-Regular'" font-size="9">2</text>
		</g>
	</g>
</g>
</svg>
