<?xml version="1.0" encoding="utf-8"?>
<!-- Generator: Adobe Illustrator 16.0.4, SVG Export Plug-In . SVG Version: 6.00 Build 0)  -->
<!DOCTYPE svg PUBLIC "-//W3C//DTD SVG 1.1//EN" "http://www.w3.org/Graphics/SVG/1.1/DTD/svg11.dtd">
<svg version="1.1" id="Livello_1" xmlns="http://www.w3.org/2000/svg" xmlns:xlink="http://www.w3.org/1999/xlink" x="0px" y="0px"
	 width="40px" height="40px" viewBox="0 0 40 40" enable-background="new 0 0 40 40" xml:space="preserve">
<g>
	<g>
		<g>
			<path fill="none" stroke="#ffffff" stroke-miterlimit="10" d="M20.001,0.838C9.421,0.838,0.838,9.441,0.838,20
				s8.602,19.162,19.163,19.162c10.56,0,19.161-8.604,19.161-19.162C39.162,9.42,30.578,0.838,20.001,0.838L20.001,0.838z
				 M34.318,28.434"/>
		</g>

			<circle fill="none" stroke="#ffffff" stroke-linecap="round" stroke-linejoin="round" stroke-miterlimit="10" cx="20" cy="20" r="7.75"/>
	</g>
	<g>

			<line fill="none" stroke="#ffffff" stroke-linecap="round" stroke-linejoin="round" stroke-miterlimit="10" x1="38.96" y1="22.015" x2="27.417" y2="22.015"/>

			<line fill="none" stroke="#ffffff" stroke-linecap="round" stroke-linejoin="round" stroke-miterlimit="10" x1="27.75" y1="17.985" x2="38.96" y2="17.985"/>

			<line fill="none" stroke="#ffffff" stroke-linecap="round" stroke-linejoin="round" stroke-miterlimit="10" x1="1.04" y1="17.985" x2="12.25" y2="17.985"/>

			<line fill="none" stroke="#ffffff" stroke-linecap="round" stroke-linejoin="round" stroke-miterlimit="10" x1="12.449" y1="22.015" x2="1.04" y2="22.015"/>
	</g>
	<g>

			<line fill="none" stroke="#ffffff" stroke-linecap="round" stroke-linejoin="round" stroke-miterlimit="10" x1="22.015" y1="1.04" x2="22.015" y2="12.41"/>

			<line fill="none" stroke="#ffffff" stroke-linecap="round" stroke-linejoin="round" stroke-miterlimit="10" x1="17.985" y1="12.25" x2="17.985" y2="1.04"/>

			<line fill="none" stroke="#ffffff" stroke-linecap="round" stroke-linejoin="round" stroke-miterlimit="10" x1="17.985" y1="38.96" x2="17.985" y2="27.75"/>

			<line fill="none" stroke="#ffffff" stroke-linecap="round" stroke-linejoin="round" stroke-miterlimit="10" x1="22.015" y1="27.551" x2="22.015" y2="38.96"/>
	</g>
</g>
</svg>
