<?xml version="1.0" encoding="utf-8"?>
<!-- Generator: Adobe Illustrator 16.0.4, SVG Export Plug-In . SVG Version: 6.00 Build 0)  -->
<!DOCTYPE svg PUBLIC "-//W3C//DTD SVG 1.1//EN" "http://www.w3.org/Graphics/SVG/1.1/DTD/svg11.dtd">
<svg version="1.1" id="Livello_1" xmlns="http://www.w3.org/2000/svg" xmlns:xlink="http://www.w3.org/1999/xlink" x="0px" y="0px"
	 width="40px" height="40px" viewBox="0 0 40 40" enable-background="new 0 0 40 40" xml:space="preserve">
<g>
	<path fill="none" stroke="#7275A0" stroke-linecap="round" stroke-linejoin="round" stroke-miterlimit="10" d="M26.554,32.937
		H1.786c-0.502,0-0.911-0.408-0.911-0.911V2.987c0-0.502,0.408-0.91,0.911-0.91h34.698c0.503,0,0.91,0.408,0.91,0.91v24.144"/>
	
		<line fill="none" stroke="#7275A0" stroke-linecap="round" stroke-linejoin="round" stroke-miterlimit="10" x1="17.729" y1="2.077" x2="17.729" y2="32.937"/>
	
		<line fill="none" stroke="#7275A0" stroke-linecap="round" stroke-linejoin="round" stroke-miterlimit="10" x1="8.17" y1="2.077" x2="8.17" y2="32.937"/>
	
		<line fill="none" stroke="#7275A0" stroke-linecap="round" stroke-linejoin="round" stroke-miterlimit="10" x1="26.554" y1="2.077" x2="26.554" y2="25.62"/>
	
		<line fill="none" stroke="#7275A0" stroke-linecap="round" stroke-linejoin="round" stroke-miterlimit="10" x1="1.188" y1="6.904" x2="37.312" y2="6.904"/>
	
		<line fill="none" stroke="#7275A0" stroke-linecap="round" stroke-linejoin="round" stroke-miterlimit="10" x1="1.188" y1="12.196" x2="36.963" y2="12.196"/>
	
		<line fill="none" stroke="#7275A0" stroke-linecap="round" stroke-linejoin="round" stroke-miterlimit="10" x1="1.188" y1="17.489" x2="26.554" y2="17.489"/>
	
		<line fill="none" stroke="#7275A0" stroke-linecap="round" stroke-linejoin="round" stroke-miterlimit="10" x1="0.875" y1="22.752" x2="26.089" y2="22.752"/>
	
		<line fill="none" stroke="#7275A0" stroke-linecap="round" stroke-linejoin="round" stroke-miterlimit="10" x1="0.875" y1="28.008" x2="21.46" y2="28.008"/>
	<g>
		<g>
			<polyline fill="none" stroke="#7275A0" stroke-linecap="round" stroke-linejoin="round" stroke-miterlimit="10" points="
				39.062,27.414 31.381,35.097 23.68,27.395 			"/>
		</g>
		
			<line fill="none" stroke="#7275A0" stroke-linecap="round" stroke-linejoin="round" stroke-miterlimit="10" x1="31.381" y1="35.097" x2="31.381" y2="14.485"/>
	</g>
	<rect x="0.982" y="2.295" fill="#7275A0" width="7.055" height="4.406"/>
</g>
</svg>
