<?xml version="1.0" encoding="utf-8"?>
<!-- Generator: Adobe Illustrator 16.0.4, SVG Export Plug-In . SVG Version: 6.00 Build 0)  -->
<!DOCTYPE svg PUBLIC "-//W3C//DTD SVG 1.1//EN" "http://www.w3.org/Graphics/SVG/1.1/DTD/svg11.dtd">
<svg version="1.1" id="Livello_1" xmlns="http://www.w3.org/2000/svg" xmlns:xlink="http://www.w3.org/1999/xlink" x="0px" y="0px"
	 width="40px" height="40px" viewBox="0 0 40 40" enable-background="new 0 0 40 40" xml:space="preserve">
<g>
	<g>
		<g>
			<path fill="none" stroke="#7275A0" stroke-miterlimit="10" d="M15.51,17.061H5.49c-0.826,0-1.497,0.672-1.497,1.498v4.93
				c0,0.83,0.671,1.5,1.497,1.5h10.02c0.826,0,1.497-0.67,1.497-1.5v-4.93C17.007,17.732,16.336,17.061,15.51,17.061z"/>
			<path fill="none" stroke="#7275A0" stroke-miterlimit="10" d="M15.51,26.694H5.49c-0.826,0-1.497,0.67-1.497,1.497v4.928
				c0,0.828,0.671,1.499,1.497,1.499h10.02c0.826,0,1.497-0.671,1.497-1.499v-4.928C17.007,27.364,16.336,26.694,15.51,26.694z"/>
			<path fill="none" stroke="#7275A0" stroke-miterlimit="10" d="M34.508,17.061H24.494c-0.83,0-1.503,0.672-1.503,1.498v4.93
				c0,0.83,0.673,1.5,1.503,1.5h10.014c0.827,0,1.499-0.67,1.499-1.5v-4.93C36.007,17.732,35.335,17.061,34.508,17.061z"/>
			<path fill="none" stroke="#7275A0" stroke-miterlimit="10" d="M34.508,26.694H24.494c-0.83,0-1.503,0.67-1.503,1.497v4.928
				c0,0.828,0.673,1.499,1.503,1.499h10.014c0.827,0,1.499-0.671,1.499-1.499v-4.928C36.007,27.364,35.335,26.694,34.508,26.694z"/>
		</g>
	</g>
	<g>
		<path fill="none" stroke="#7275A0" stroke-linecap="round" stroke-linejoin="round" stroke-miterlimit="10" d="M31.723,4.455
			h6.625c0.338,0,0.611,0.273,0.611,0.611v33.127c0,0.34-0.273,0.613-0.611,0.613H1.653c-0.338,0-0.612-0.273-0.612-0.613V5.066
			c0-0.338,0.274-0.611,0.612-0.611h6.981"/>
		
			<line fill="none" stroke="#7275A0" stroke-linecap="round" stroke-linejoin="round" stroke-miterlimit="10" x1="13.427" y1="4.455" x2="26.779" y2="4.455"/>
		
			<line fill="none" stroke="#7275A0" stroke-linecap="round" stroke-linejoin="round" stroke-miterlimit="10" x1="11.156" y1="1.193" x2="11.156" y2="7.922"/>
		
			<line fill="none" stroke="#7275A0" stroke-linecap="round" stroke-linejoin="round" stroke-miterlimit="10" x1="29.275" y1="1.193" x2="29.275" y2="7.922"/>
		
			<line fill="none" stroke="#7275A0" stroke-linecap="round" stroke-linejoin="round" stroke-miterlimit="10" x1="1.041" y1="12.711" x2="38.959" y2="12.711"/>
	</g>
</g>
</svg>
