<?xml version="1.0" encoding="utf-8"?>
<!-- Generator: Adobe Illustrator 16.0.4, SVG Export Plug-In . SVG Version: 6.00 Build 0)  -->
<!DOCTYPE svg PUBLIC "-//W3C//DTD SVG 1.1//EN" "http://www.w3.org/Graphics/SVG/1.1/DTD/svg11.dtd">
<svg version="1.1" id="Livello_1" xmlns="http://www.w3.org/2000/svg" xmlns:xlink="http://www.w3.org/1999/xlink" x="0px" y="0px"
	 width="40px" height="40px" viewBox="0 0 40 40" enable-background="new 0 0 40 40" xml:space="preserve">
<g>
	<path fill="none" stroke="#ffffff" stroke-linecap="round" stroke-linejoin="round" stroke-miterlimit="10" d="M36.343,34.192
		c0.067,0,0.137,0,0.209-0.021c0.513-0.071,0.936-0.422,1.119-0.887c0.188-0.539,0.048-1.096-0.35-1.472l-0.069-0.068
		c-0.141-0.141-0.7-0.771-1.236-2.103c-0.585-1.422-1.31-3.968-1.31-7.914c0-7.795-2.942-11.906-5.393-13.982
		c-1.634-1.377-3.266-2.056-4.344-2.384c-0.044-0.955-0.276-2.264-1.166-3.313c-0.604-0.725-1.751-1.563-3.783-1.563
		c-2.004,0-3.151,0.864-3.755,1.563c-0.912,1.073-1.169,2.404-1.191,3.387c-1.097,0.324-2.733,1.001-4.344,2.33
		c-4.502,3.689-5.437,9.622-5.437,13.918c0,3.827-0.725,6.372-1.332,7.843c-0.655,1.563-1.284,2.266-1.284,2.266
		c-0.422,0.397-0.54,1.001-0.327,1.541l0,0c0.209,0.514,0.722,0.86,1.284,0.86H36.343z M13.812,34.192
		c0.442,3.014,3.057,5.323,6.165,5.323c3.105,0,5.717-2.31,6.163-5.323H13.812z M8.093,21.683"/>
</g>
</svg>
