<?xml version="1.0" encoding="utf-8"?>
<!-- Generator: Adobe Illustrator 16.0.4, SVG Export Plug-In . SVG Version: 6.00 Build 0)  -->
<!DOCTYPE svg PUBLIC "-//W3C//DTD SVG 1.1//EN" "http://www.w3.org/Graphics/SVG/1.1/DTD/svg11.dtd">
<svg version="1.1" id="Livello_1" xmlns="http://www.w3.org/2000/svg" xmlns:xlink="http://www.w3.org/1999/xlink" x="0px" y="0px"
	 width="40px" height="40px" viewBox="0 0 40 40" enable-background="new 0 0 40 40" xml:space="preserve">
<g>
	<path fill="none" stroke="#7275A0" stroke-miterlimit="10" d="M35.789,2.136c0-0.854-0.693-1.553-1.555-1.553H5.758
		c-0.855,0-1.551,0.699-1.551,1.553v35.732c0,0.852,0.695,1.549,1.551,1.549h28.477c0.861,0,1.559-0.697,1.559-1.549V2.136H35.789z"
		/>
	<g>
		<g>
			
				<line fill="none" stroke="#7275A0" stroke-linecap="round" stroke-linejoin="round" stroke-miterlimit="10" x1="6.414" y1="14.791" x2="17.662" y2="14.791"/>
			
				<line fill="none" stroke="#7275A0" stroke-linecap="round" stroke-linejoin="round" stroke-miterlimit="10" x1="6.414" y1="17.396" x2="17.662" y2="17.396"/>
			
				<line fill="none" stroke="#7275A0" stroke-linecap="round" stroke-linejoin="round" stroke-miterlimit="10" x1="6.414" y1="22.605" x2="17.662" y2="22.605"/>
			
				<line fill="none" stroke="#7275A0" stroke-linecap="round" stroke-linejoin="round" stroke-miterlimit="10" x1="6.414" y1="20" x2="17.662" y2="20"/>
			
				<line fill="none" stroke="#7275A0" stroke-linecap="round" stroke-linejoin="round" stroke-miterlimit="10" x1="6.414" y1="25.209" x2="17.662" y2="25.209"/>
		</g>
		<g>
			<g>
				<g>
					<path fill="none" stroke="#7275A0" stroke-miterlimit="10" d="M26.684,26.901c-3.805,0-6.902-3.096-6.902-6.902
						c0-3.805,3.098-6.9,6.902-6.9s6.902,3.096,6.902,6.9C33.586,23.806,30.488,26.901,26.684,26.901z"/>
				</g>
				<g>
					<g>
						<path fill="none" stroke="#7275A0" stroke-miterlimit="10" d="M31.969,21.61c-0.689,2.264-2.793,3.91-5.281,3.91
							s-4.602-1.646-5.291-3.91"/>
					</g>
				</g>
				<g>
					<path fill="none" stroke="#7275A0" stroke-linecap="round" stroke-linejoin="round" stroke-miterlimit="10" d="M31.557,19.999
						h0.648c0-3.043-2.477-5.521-5.521-5.521s-5.521,2.479-5.521,5.521h0.705"/>
				</g>
				
					<line fill="none" stroke="#7275A0" stroke-linecap="round" stroke-linejoin="round" stroke-miterlimit="10" x1="26.684" y1="14.478" x2="26.684" y2="15.208"/>
				
					<line fill="none" stroke="#7275A0" stroke-linecap="round" stroke-linejoin="round" stroke-miterlimit="10" x1="30.645" y1="16.157" x2="30.09" y2="16.71"/>
				
					<line fill="none" stroke="#7275A0" stroke-linecap="round" stroke-linejoin="round" stroke-miterlimit="10" x1="22.842" y1="16.157" x2="23.395" y2="16.71"/>
			</g>
			<path fill="none" stroke="#7275A0" stroke-miterlimit="10" d="M26.924,16.45c-0.021-0.117-0.125-0.205-0.244-0.205
				c-0.121,0-0.225,0.088-0.244,0.205l-1.172,6.551c0,0,0.004,0.016,0.004,0.023c0,0.785,0.633,1.418,1.416,1.418
				s1.418-0.633,1.418-1.418C28.102,22.856,26.924,16.45,26.924,16.45z"/>
		</g>
	</g>
</g>
</svg>
