<?xml version="1.0" encoding="utf-8"?>
<!-- Generator: Adobe Illustrator 16.0.4, SVG Export Plug-In . SVG Version: 6.00 Build 0)  -->
<!DOCTYPE svg PUBLIC "-//W3C//DTD SVG 1.1//EN" "http://www.w3.org/Graphics/SVG/1.1/DTD/svg11.dtd">
<svg version="1.1" id="Livello_1" xmlns="http://www.w3.org/2000/svg" xmlns:xlink="http://www.w3.org/1999/xlink" x="0px" y="0px"
	 width="40px" height="40px" viewBox="0 0 40 40" enable-background="new 0 0 40 40" xml:space="preserve">
<g>
	<g>
		<g>
			<path fill="none" stroke="#ffffff" stroke-linecap="round" stroke-linejoin="round" stroke-miterlimit="10" d="M8.32,15.526
				H6.323c-0.447,0-0.814,0.363-0.814,0.814v22.363c0,0.447,0.367,0.814,0.814,0.814h27.354c0.448,0,0.813-0.367,0.813-0.814V16.341
				c0-0.451-0.365-0.814-0.813-0.814l0,0H31.68H8.32z"/>
		</g>
		<path fill="none" stroke="#ffffff" stroke-linecap="round" stroke-linejoin="round" stroke-miterlimit="10" d="M31.718,15.526
			v-3.327c0-6.472-5.246-11.718-11.718-11.718c-6.47,0-11.716,5.246-11.716,11.718v3.327"/>
	</g>
	<g>

			<line fill="none" stroke="#ffffff" stroke-linecap="round" stroke-linejoin="round" stroke-miterlimit="10" x1="20" y1="26.29" x2="20" y2="34.747"/>

			<circle fill="none" stroke="#ffffff" stroke-linecap="round" stroke-linejoin="round" stroke-miterlimit="10" cx="20.027" cy="25.944" r="3.522"/>
	</g>
</g>
</svg>
