<?xml version="1.0" encoding="utf-8"?>
<!-- Generator: Adobe Illustrator 16.0.4, SVG Export Plug-In . SVG Version: 6.00 Build 0)  -->
<!DOCTYPE svg PUBLIC "-//W3C//DTD SVG 1.1//EN" "http://www.w3.org/Graphics/SVG/1.1/DTD/svg11.dtd">
<svg version="1.1" id="Livello_1" xmlns="http://www.w3.org/2000/svg" xmlns:xlink="http://www.w3.org/1999/xlink" x="0px" y="0px"
	 width="40px" height="40px" viewBox="0 0 40 40" enable-background="new 0 0 40 40" xml:space="preserve">
<g>
	<path fill="none" stroke="#7275A0" stroke-linecap="round" stroke-linejoin="round" stroke-miterlimit="10" d="M22.778,10.573
		c0-1.702,1.383-3.086,3.086-3.086c1.701,0,3.084,1.384,3.084,3.086c0,1.953-2.421,8.286-3.084,8.546
		C25.201,18.859,22.778,12.526,22.778,10.573z"/>
	<g>
		<path fill="none" stroke="#7275A0" stroke-linecap="round" stroke-linejoin="round" stroke-miterlimit="10" d="M22.214,13.696
			l-1.443-0.442L13.489,16.2C13.42,16.225,1.04,31.801,1.04,31.801c-0.139,0.155-0.142,0.394-0.006,0.56
			c0.081,0.097,0.204,0.152,0.326,0.152c0.076,0,0.155-0.021,0.224-0.063l12.371-7.54l12.37,7.54
			c0.073,0.042,0.147,0.063,0.223,0.063c0.078,0,0.149-0.024,0.215-0.061c0.004-0.003,0.006,0,0.01-0.003l11.577-6.654
			c0.117-0.075,0.196-0.206,0.204-0.348l0.512-12.13c0.007-0.134-0.048-0.262-0.152-0.348c-0.104-0.083-0.239-0.119-0.371-0.085
			l-8.268,3.276l-1.35-0.412"/>
		
			<line fill="none" stroke="#7275A0" stroke-linecap="round" stroke-linejoin="round" stroke-miterlimit="10" x1="13.978" y1="24.877" x2="20.709" y2="13.363"/>
		
			<line fill="none" stroke="#7275A0" stroke-linecap="round" stroke-linejoin="round" stroke-miterlimit="10" x1="30.097" y1="16.235" x2="26.639" y2="32.322"/>
	</g>
</g>
</svg>
