<?xml version="1.0" encoding="utf-8"?>
<!-- Generator: Adobe Illustrator 16.0.4, SVG Export Plug-In . SVG Version: 6.00 Build 0)  -->
<!DOCTYPE svg PUBLIC "-//W3C//DTD SVG 1.1//EN" "http://www.w3.org/Graphics/SVG/1.1/DTD/svg11.dtd">
<svg version="1.1" id="Livello_1" xmlns="http://www.w3.org/2000/svg" xmlns:xlink="http://www.w3.org/1999/xlink" x="0px" y="0px"
	 width="40px" height="40px" viewBox="0 0 40 40" enable-background="new 0 0 40 40" xml:space="preserve">
<g>
	<path fill="none" stroke="#7275A0" stroke-miterlimit="10" d="M39.188,30.001c0,1.335-1.084,2.417-2.417,2.417H3.889
		c-1.333,0-2.417-1.082-2.417-2.417V9.989c0-1.336,1.084-2.417,2.417-2.417h32.881c1.333,0,2.417,1.081,2.417,2.417V30.001z"/>
	<g>
		<polyline fill="none" stroke="#7275A0" stroke-linecap="round" stroke-linejoin="round" stroke-miterlimit="10" points="
			2.553,31.889 11.997,22.77 16.322,27.315 27.842,15.759 30.463,18.349 37.375,11.53 33.493,11.53 		"/>
		
			<line fill="none" stroke="#7275A0" stroke-linecap="round" stroke-linejoin="round" stroke-miterlimit="10" x1="37.375" y1="15.317" x2="37.375" y2="11.53"/>
		<line fill="none" stroke="#7275A0" stroke-miterlimit="10" x1="33.943" y1="14.916" x2="33.943" y2="32.143"/>
		<line fill="none" stroke="#7275A0" stroke-miterlimit="10" x1="29.137" y1="17.214" x2="29.137" y2="32.143"/>
		<line fill="none" stroke="#7275A0" stroke-miterlimit="10" x1="24.181" y1="19.432" x2="24.181" y2="32.418"/>
		<line fill="none" stroke="#7275A0" stroke-miterlimit="10" x1="19.286" y1="24.344" x2="19.286" y2="32.428"/>
		<line fill="none" stroke="#7275A0" stroke-miterlimit="10" x1="14.382" y1="25.277" x2="14.382" y2="32.269"/>
		<line fill="none" stroke="#7275A0" stroke-miterlimit="10" x1="9.503" y1="25.08" x2="9.503" y2="32.363"/>
	</g>
</g>
</svg>
