<?xml version="1.0" encoding="utf-8"?>
<!-- Generator: Adobe Illustrator 16.0.4, SVG Export Plug-In . SVG Version: 6.00 Build 0)  -->
<!DOCTYPE svg PUBLIC "-//W3C//DTD SVG 1.1//EN" "http://www.w3.org/Graphics/SVG/1.1/DTD/svg11.dtd">
<svg version="1.1" id="Livello_1" xmlns="http://www.w3.org/2000/svg" xmlns:xlink="http://www.w3.org/1999/xlink" x="0px" y="0px"
	 width="40px" height="40px" viewBox="0 0 40 40" enable-background="new 0 0 40 40" xml:space="preserve">
<g>
	<path fill="#FFFFFF" stroke="#7275A0" stroke-width="0.7151" stroke-miterlimit="10" d="M24.29,12.176
		c0-0.61-0.496-1.11-1.111-1.11H2.816c-0.612,0-1.109,0.5-1.109,1.11v25.551c0,0.609,0.497,1.107,1.109,1.107h20.363
		c0.615,0,1.114-0.498,1.114-1.107V12.176H24.29z"/>
	<g>
		<g>
			
				<line fill="none" stroke="#7275A0" stroke-width="0.7151" stroke-linecap="round" stroke-linejoin="round" stroke-miterlimit="10" x1="3.285" y1="21.225" x2="11.328" y2="21.225"/>
			
				<line fill="none" stroke="#7275A0" stroke-width="0.7151" stroke-linecap="round" stroke-linejoin="round" stroke-miterlimit="10" x1="3.285" y1="23.088" x2="11.328" y2="23.088"/>
			
				<line fill="none" stroke="#7275A0" stroke-width="0.7151" stroke-linecap="round" stroke-linejoin="round" stroke-miterlimit="10" x1="3.285" y1="26.812" x2="11.328" y2="26.812"/>
			
				<line fill="none" stroke="#7275A0" stroke-width="0.7151" stroke-linecap="round" stroke-linejoin="round" stroke-miterlimit="10" x1="3.285" y1="24.949" x2="11.328" y2="24.949"/>
			
				<line fill="none" stroke="#7275A0" stroke-width="0.7151" stroke-linecap="round" stroke-linejoin="round" stroke-miterlimit="10" x1="3.285" y1="28.674" x2="11.328" y2="28.674"/>
		</g>
		<g>
			<g>
				<g>
					<path fill="none" stroke="#7275A0" stroke-width="0.7151" stroke-miterlimit="10" d="M17.779,29.885
						c-2.721,0-4.936-2.214-4.936-4.936c0-2.721,2.215-4.935,4.936-4.935s4.936,2.214,4.936,4.935
						C22.715,27.671,20.5,29.885,17.779,29.885z"/>
				</g>
				<g>
					<g>
						<path fill="none" stroke="#7275A0" stroke-width="0.7151" stroke-miterlimit="10" d="M21.559,26.102
							c-0.493,1.618-1.998,2.796-3.776,2.796c-1.779,0-3.291-1.178-3.784-2.796"/>
					</g>
				</g>
				<g>
					
						<path fill="none" stroke="#7275A0" stroke-width="0.7151" stroke-linecap="round" stroke-linejoin="round" stroke-miterlimit="10" d="
						M21.264,24.949h0.464c0-2.176-1.771-3.948-3.948-3.948s-3.948,1.772-3.948,3.948h0.504"/>
				</g>
				
					<line fill="none" stroke="#7275A0" stroke-width="0.7151" stroke-linecap="round" stroke-linejoin="round" stroke-miterlimit="10" x1="17.779" y1="21.001" x2="17.779" y2="21.523"/>
				
					<line fill="none" stroke="#7275A0" stroke-width="0.7151" stroke-linecap="round" stroke-linejoin="round" stroke-miterlimit="10" x1="20.611" y1="22.202" x2="20.215" y2="22.597"/>
				
					<line fill="none" stroke="#7275A0" stroke-width="0.7151" stroke-linecap="round" stroke-linejoin="round" stroke-miterlimit="10" x1="15.032" y1="22.202" x2="15.427" y2="22.597"/>
			</g>
			<path fill="none" stroke="#7275A0" stroke-width="0.7151" stroke-miterlimit="10" d="M17.951,22.411
				c-0.016-0.084-0.089-0.146-0.175-0.146c-0.086,0-0.161,0.062-0.174,0.146l-0.838,4.685c0,0,0.003,0.011,0.003,0.017
				c0,0.562,0.453,1.014,1.013,1.014s1.014-0.452,1.014-1.014C18.793,26.992,17.951,22.411,17.951,22.411z"/>
		</g>
	</g>
</g>
<g>
	<path fill="#FFFFFF" stroke="#7275A0" stroke-width="0.7151" stroke-miterlimit="10" d="M37.79,3.176c0-0.61-0.496-1.11-1.111-1.11
		H16.316c-0.612,0-1.109,0.5-1.109,1.11v25.551c0,0.609,0.497,1.107,1.109,1.107h20.362c0.615,0,1.114-0.498,1.114-1.107V3.176
		H37.79z"/>
	<g>
		<g>
			
				<line fill="none" stroke="#7275A0" stroke-width="0.7151" stroke-linecap="round" stroke-linejoin="round" stroke-miterlimit="10" x1="16.785" y1="12.225" x2="24.828" y2="12.225"/>
			
				<line fill="none" stroke="#7275A0" stroke-width="0.7151" stroke-linecap="round" stroke-linejoin="round" stroke-miterlimit="10" x1="16.785" y1="14.088" x2="24.828" y2="14.088"/>
			
				<line fill="none" stroke="#7275A0" stroke-width="0.7151" stroke-linecap="round" stroke-linejoin="round" stroke-miterlimit="10" x1="16.785" y1="17.812" x2="24.828" y2="17.812"/>
			
				<line fill="none" stroke="#7275A0" stroke-width="0.7151" stroke-linecap="round" stroke-linejoin="round" stroke-miterlimit="10" x1="16.785" y1="15.949" x2="24.828" y2="15.949"/>
			
				<line fill="none" stroke="#7275A0" stroke-width="0.7151" stroke-linecap="round" stroke-linejoin="round" stroke-miterlimit="10" x1="16.785" y1="19.674" x2="24.828" y2="19.674"/>
		</g>
		<g>
			<g>
				<g>
					<path fill="none" stroke="#7275A0" stroke-width="0.7151" stroke-miterlimit="10" d="M31.279,20.885
						c-2.721,0-4.936-2.214-4.936-4.936c0-2.721,2.215-4.935,4.936-4.935s4.936,2.214,4.936,4.935
						C36.215,18.671,34,20.885,31.279,20.885z"/>
				</g>
				<g>
					<g>
						<path fill="none" stroke="#7275A0" stroke-width="0.7151" stroke-miterlimit="10" d="M35.059,17.102
							c-0.493,1.618-1.998,2.796-3.776,2.796c-1.779,0-3.29-1.178-3.784-2.796"/>
					</g>
				</g>
				<g>
					
						<path fill="none" stroke="#7275A0" stroke-width="0.7151" stroke-linecap="round" stroke-linejoin="round" stroke-miterlimit="10" d="
						M34.764,15.949h0.464c0-2.176-1.771-3.948-3.948-3.948s-3.948,1.772-3.948,3.948h0.504"/>
				</g>
				
					<line fill="none" stroke="#7275A0" stroke-width="0.7151" stroke-linecap="round" stroke-linejoin="round" stroke-miterlimit="10" x1="31.279" y1="12.001" x2="31.279" y2="12.523"/>
				
					<line fill="none" stroke="#7275A0" stroke-width="0.7151" stroke-linecap="round" stroke-linejoin="round" stroke-miterlimit="10" x1="34.111" y1="13.202" x2="33.715" y2="13.597"/>
				
					<line fill="none" stroke="#7275A0" stroke-width="0.7151" stroke-linecap="round" stroke-linejoin="round" stroke-miterlimit="10" x1="28.532" y1="13.202" x2="28.928" y2="13.597"/>
			</g>
			<path fill="none" stroke="#7275A0" stroke-width="0.7151" stroke-miterlimit="10" d="M31.451,13.411
				c-0.016-0.084-0.09-0.146-0.175-0.146c-0.087,0-0.161,0.062-0.175,0.146l-0.838,4.685c0,0,0.003,0.011,0.003,0.017
				c0,0.562,0.452,1.014,1.013,1.014s1.014-0.452,1.014-1.014C32.293,17.992,31.451,13.411,31.451,13.411z"/>
		</g>
	</g>
</g>
</svg>
