<?xml version="1.0" encoding="utf-8"?>
<!-- Generator: Adobe Illustrator 16.0.4, SVG Export Plug-In . SVG Version: 6.00 Build 0)  -->
<!DOCTYPE svg PUBLIC "-//W3C//DTD SVG 1.1//EN" "http://www.w3.org/Graphics/SVG/1.1/DTD/svg11.dtd">
<svg version="1.1" id="Livello_1" xmlns="http://www.w3.org/2000/svg" xmlns:xlink="http://www.w3.org/1999/xlink" x="0px" y="0px"
	 width="40px" height="40px" viewBox="0 0 40 40" enable-background="new 0 0 40 40" xml:space="preserve">
<g>
	<g>
		<g>
			<path fill="none" stroke="#7275A0" stroke-linecap="round" stroke-linejoin="round" stroke-miterlimit="10" d="M33.545,6.453
				c-7.48-7.481-19.634-7.467-27.1-0.001c-7.466,7.466-7.467,19.632,0.001,27.1c7.467,7.467,19.632,7.466,27.099,0
				C41.025,26.07,41.023,13.933,33.545,6.453L33.545,6.453z M24.156,36.09"/>
		</g>
	</g>
	<path fill="none" stroke="#7275A0" stroke-linecap="round" stroke-linejoin="round" stroke-miterlimit="10" d="M14.399,20.642
		l4.815,1.351l-2.488,12.663c-0.043,0.222,0.086,0.438,0.297,0.513c0.047,0.014,0.097,0.023,0.144,0.023
		c0.169,0,0.327-0.095,0.402-0.249l8.311-16.768c0.062-0.121,0.063-0.267,0.006-0.391c-0.061-0.126-0.171-0.211-0.304-0.247
		l-4.622-1.101l2.244-11.093c0.048-0.215-0.075-0.431-0.283-0.505c-0.208-0.08-0.441,0.006-0.55,0.201L14.13,19.991
		c-0.068,0.123-0.075,0.268-0.021,0.392C14.163,20.512,14.266,20.604,14.399,20.642z"/>
</g>
</svg>
