<?xml version="1.0" encoding="utf-8"?>
<!-- Generator: Adobe Illustrator 16.0.4, SVG Export Plug-In . SVG Version: 6.00 Build 0)  -->
<!DOCTYPE svg PUBLIC "-//W3C//DTD SVG 1.1//EN" "http://www.w3.org/Graphics/SVG/1.1/DTD/svg11.dtd">
<svg version="1.1" id="Livello_1" xmlns="http://www.w3.org/2000/svg" xmlns:xlink="http://www.w3.org/1999/xlink" x="0px" y="0px"
	 width="40px" height="40px" viewBox="0 0 40 40" enable-background="new 0 0 40 40" xml:space="preserve">
<g>
	<g>
		<g>
			<path fill="none" stroke="#7275A0" stroke-miterlimit="10" d="M20,38.979c-10.465,0-18.979-8.514-18.979-18.979
				C1.021,9.535,9.535,1.021,20,1.021s18.979,8.514,18.979,18.978C38.979,30.465,30.465,38.979,20,38.979z"/>
		</g>
		<g>
			<g>
				<path fill="none" stroke="#7275A0" stroke-miterlimit="10" d="M34.536,24.428c-1.895,6.226-7.679,10.755-14.524,10.755
					c-6.844,0-12.654-4.529-14.549-10.755"/>
			</g>
		</g>
		<g>
			<path fill="none" stroke="#7275A0" stroke-linecap="round" stroke-linejoin="round" stroke-miterlimit="10" d="M33.402,19.999
				h1.781c0-8.371-6.812-15.184-15.184-15.184c-8.371,0-15.184,6.812-15.184,15.184H6.76"/>
		</g>
		
			<line fill="none" stroke="#7275A0" stroke-linecap="round" stroke-linejoin="round" stroke-miterlimit="10" x1="20" y1="4.815" x2="20" y2="6.822"/>
		
			<line fill="none" stroke="#7275A0" stroke-linecap="round" stroke-linejoin="round" stroke-miterlimit="10" x1="30.892" y1="9.43" x2="29.366" y2="10.956"/>
		
			<line fill="none" stroke="#7275A0" stroke-linecap="round" stroke-linejoin="round" stroke-miterlimit="10" x1="9.434" y1="9.43" x2="10.959" y2="10.956"/>
	</g>
	<path fill="none" stroke="#7275A0" stroke-miterlimit="10" d="M20.662,10.238c-0.059-0.324-0.342-0.562-0.673-0.562
		s-0.613,0.238-0.671,0.562L16.102,28.25c0,0,0.002,0.045,0.002,0.068c0,2.154,1.744,3.898,3.898,3.898
		c2.153,0,3.897-1.744,3.897-3.898C23.899,27.855,20.662,10.238,20.662,10.238z"/>
</g>
</svg>
