<?xml version="1.0" encoding="utf-8"?>
<!-- Generator: Adobe Illustrator 16.0.4, SVG Export Plug-In . SVG Version: 6.00 Build 0)  -->
<!DOCTYPE svg PUBLIC "-//W3C//DTD SVG 1.1//EN" "http://www.w3.org/Graphics/SVG/1.1/DTD/svg11.dtd">
<svg version="1.1" id="Livello_1" xmlns="http://www.w3.org/2000/svg" xmlns:xlink="http://www.w3.org/1999/xlink" x="0px" y="0px"
	 width="40px" height="40px" viewBox="0 0 40 40" enable-background="new 0 0 40 40" xml:space="preserve">
<g>
	<path fill="none" stroke="#ffffff" stroke-miterlimit="10" d="M36.926,16.323h-3.783c-0.312-1.123-0.767-2.199-1.357-3.209
		l2.821-2.804c0.404-0.402,0.63-0.937,0.63-1.503c0-0.57-0.216-1.107-0.617-1.509l-2.187-2.203
		c-0.403-0.402-0.941-0.629-1.517-0.629c-0.568,0-1.095,0.222-1.498,0.618l-2.938,2.911c-0.892-0.48-1.829-0.864-2.8-1.134v-3.78
		c0-1.178-0.955-2.13-2.129-2.13h-3.105c-1.178,0-2.129,0.952-2.129,2.13v3.775c-0.937,0.26-1.847,0.62-2.709,1.083l-2.913-2.938
		c-0.402-0.403-0.94-0.627-1.513-0.627c-0.568,0-1.098,0.22-1.501,0.615l-2.201,2.19c-0.839,0.827-0.843,2.177-0.015,3.013
		l2.803,2.831c-0.613,1.034-1.091,2.137-1.415,3.292H3.075c-1.174,0-2.129,0.956-2.129,2.132v3.102c0,1.177,0.956,2.133,2.129,2.137
		H6.85c0.259,0.935,0.628,1.842,1.083,2.703l-2.547,2.528c-0.832,0.827-0.84,2.177-0.012,3.01l2.19,2.205
		c0.402,0.401,0.94,0.629,1.512,0.629c0.565,0,1.099-0.223,1.501-0.618l2.434-2.419c1.035,0.613,2.141,1.092,3.297,1.415v3.779
		c0,1.173,0.956,2.129,2.133,2.129h3.101c1.178,0,2.133-0.956,2.152-2.119v-3.781c1.12-0.312,2.193-0.771,3.201-1.363l2.416,2.435
		c0.399,0.402,0.938,0.627,1.513,0.627c0.568,0,1.096-0.22,1.498-0.614l2.2-2.191c0.403-0.399,0.629-0.935,0.629-1.5
		c0-0.573-0.214-1.11-0.616-1.509l-2.529-2.548c0.485-0.894,0.869-1.831,1.136-2.801h3.783c1.173,0,2.129-0.956,2.129-2.133v-3.097
		C39.055,17.275,38.099,16.323,36.926,16.323z"/>
	<circle fill="none" stroke="#ffffff" stroke-miterlimit="10" cx="20" cy="20" r="7.181"/>
</g>
</svg>
