<?xml version="1.0" encoding="utf-8"?>
<!-- Generator: Adobe Illustrator 16.0.4, SVG Export Plug-In . SVG Version: 6.00 Build 0)  -->
<!DOCTYPE svg PUBLIC "-//W3C//DTD SVG 1.1//EN" "http://www.w3.org/Graphics/SVG/1.1/DTD/svg11.dtd">
<svg version="1.1" id="Livello_1" xmlns="http://www.w3.org/2000/svg" xmlns:xlink="http://www.w3.org/1999/xlink" x="0px" y="0px"
	 width="27.141px" height="27.133px" viewBox="0 0 27.141 27.133" enable-background="new 0 0 27.141 27.133" xml:space="preserve">
<g>
	<path fill="none" stroke="#EC4882" stroke-miterlimit="10" d="M25.18,11.044h-2.596c-0.215-0.769-0.525-1.509-0.932-2.201
		l1.936-1.923c0.277-0.276,0.432-0.643,0.432-1.031c0-0.391-0.146-0.76-0.422-1.036l-1.5-1.511
		c-0.277-0.276-0.646-0.431-1.041-0.431c-0.391,0-0.75,0.151-1.027,0.423l-2.016,1.998c-0.611-0.33-1.256-0.593-1.92-0.778V1.96
		c0-0.808-0.656-1.46-1.461-1.46h-2.131c-0.807,0-1.461,0.653-1.461,1.46v2.591c-0.643,0.177-1.266,0.424-1.857,0.742L7.186,3.279
		C6.91,3.002,6.541,2.848,6.148,2.848c-0.391,0-0.754,0.15-1.031,0.421l-1.51,1.503c-0.574,0.567-0.578,1.493-0.01,2.067L5.52,8.781
		c-0.42,0.71-0.748,1.465-0.969,2.259H1.959c-0.807,0-1.459,0.656-1.459,1.462v2.127c0,0.807,0.652,1.464,1.459,1.467h2.59
		c0.178,0.642,0.43,1.263,0.742,1.854l-1.748,1.734c-0.568,0.567-0.576,1.494-0.008,2.064l1.504,1.513
		c0.275,0.275,0.645,0.432,1.037,0.432c0.387,0,0.756-0.153,1.029-0.426l1.67-1.658c0.709,0.422,1.469,0.75,2.264,0.971v2.593
		c0,0.803,0.654,1.46,1.461,1.46h2.127c0.809,0,1.465-0.657,1.477-1.453v-2.595c0.77-0.213,1.504-0.529,2.195-0.934l1.658,1.669
		c0.273,0.276,0.643,0.43,1.037,0.43c0.389,0,0.754-0.15,1.027-0.421l1.51-1.503c0.277-0.274,0.432-0.642,0.432-1.028
		c0-0.393-0.146-0.762-0.422-1.036l-1.736-1.747c0.332-0.613,0.596-1.255,0.779-1.921h2.596c0.805,0,1.461-0.657,1.461-1.464v-2.124
		C26.641,11.697,25.984,11.044,25.18,11.044z"/>
	<circle fill="none" stroke="#EC4882" stroke-miterlimit="10" cx="13.57" cy="13.566" r="4.928"/>
</g>
</svg>
