<?xml version="1.0" encoding="utf-8"?>
<!-- Generator: Adobe Illustrator 16.0.4, SVG Export Plug-In . SVG Version: 6.00 Build 0)  -->
<!DOCTYPE svg PUBLIC "-//W3C//DTD SVG 1.1//EN" "http://www.w3.org/Graphics/SVG/1.1/DTD/svg11.dtd">
<svg version="1.1" xmlns="http://www.w3.org/2000/svg" xmlns:xlink="http://www.w3.org/1999/xlink" x="0px" y="0px" width="40px"
	 height="40px" viewBox="0 0 40 40" enable-background="new 0 0 40 40" xml:space="preserve">
<g id="Livello_1">
	<g>
		<path fill="none" stroke="#7275A0" stroke-miterlimit="10" d="M6.723,4.235c0,0,3.616-1.932,7.276-1.653
			c3.446,0.263,7.691,2.297,7.691,2.297"/>
		<polyline fill="none" stroke="#7275A0" stroke-miterlimit="10" points="19.138,1.387 21.704,4.913 17.738,6.848 		"/>
	</g>
	<g>
		<path fill="none" stroke="#7275A0" stroke-miterlimit="10" d="M17.775,8.819c0,0-3.616-1.933-7.275-1.653
			C7.053,7.429,2.808,9.463,2.808,9.463"/>
		<polyline fill="none" stroke="#7275A0" stroke-miterlimit="10" points="5.36,5.971 2.794,9.497 6.761,11.432 		"/>
	</g>
</g>
<g id="Livello_2">
	<path fill="none" stroke="#7275A0" stroke-miterlimit="10" d="M16.175,29.224c0,0-0.598-4.673-2.146-8.046
		c-1.55-3.372-4.713-7.848-4.575-8.7c0.138-0.852,0.838-1.791,1.671-1.945c0.833-0.156,1.792-0.554,3.318,1.378
		C15.97,13.843,19.5,22.834,19.5,22.834s-1.381-5.12-0.922-6.186s1.784-1.456,2.077-1.475c0.293-0.02,1.537,0.052,2.101,1.234
		c0.564,1.182,0.972,2.922,0.972,2.922s0.021-2.489,0.666-3.039c0.645-0.549,1.529-0.851,2.088-0.693
		c0.559,0.156,1.107,0.801,1.311,1.732c0.202,0.932,0.522,2.108,0.522,2.108s0.184-2.022,0.629-2.355
		c0.445-0.334,1.377-0.536,2.101-0.035c0.722,0.502,2.894,4.243,3.269,7.618c0.381,3.426,0.562,7.812-0.437,9.593
		c-1.179,2.101-3.631,3.668-5.179,4.225c-1.548,0.558-4.479,0.626-6.982,0.067c-1.889-0.421-5.983-3.552-6.821-4.421
		c-0.839-0.87-2.838-3.93-3.129-6.33c-0.162-1.333,1.355-6.557,2.619-5.529C15.548,23.216,16.175,29.224,16.175,29.224z"/>
</g>
</svg>
