<?xml version="1.0" encoding="utf-8"?>
<!-- Generator: Adobe Illustrator 16.0.4, SVG Export Plug-In . SVG Version: 6.00 Build 0)  -->
<!DOCTYPE svg PUBLIC "-//W3C//DTD SVG 1.1//EN" "http://www.w3.org/Graphics/SVG/1.1/DTD/svg11.dtd">
<svg version="1.1" xmlns="http://www.w3.org/2000/svg" xmlns:xlink="http://www.w3.org/1999/xlink" x="0px" y="0px" width="40px"
	 height="40px" viewBox="0 0 40 40" enable-background="new 0 0 40 40" xml:space="preserve">
<g id="Livello_1">
	<g>
		<line fill="none" stroke="#7275A0" stroke-miterlimit="10" x1="9.238" y1="9.459" x2="13.863" y2="3.448"/>
		<polyline fill="none" stroke="#7275A0" stroke-miterlimit="10" points="9.656,4.294 13.913,3.344 14.108,7.752 		"/>
	</g>
	<g>
		<line fill="none" stroke="#7275A0" stroke-miterlimit="10" x1="8.517" y1="10.386" x2="4.023" y2="16.495"/>
		<polyline fill="none" stroke="#7275A0" stroke-miterlimit="10" points="3.67,12.219 3.936,16.572 8.226,15.539 		"/>
	</g>
</g>
<g id="Livello_2">
	<path fill="none" stroke="#7275A0" stroke-miterlimit="10" d="M14.91,23.432c0,0,1.473-4.475,1.527-8.186
		c0.055-3.71-0.873-9.112-0.382-9.822c0.491-0.709,1.528-1.255,2.347-1.036c0.818,0.218,1.855,0.272,2.401,2.674
		c0.545,2.4,0.029,12.772,0.029,12.772s0.789-5.951,1.662-6.716c0.873-0.764,2.237-0.546,2.51-0.437
		c0.273,0.109,1.364,0.71,1.364,2.02s-0.382,3.056-0.382,3.056s1.092-2.237,1.91-2.456c0.818-0.218,1.746-0.108,2.183,0.273
		s0.654,1.2,0.437,2.128c-0.219,0.928-0.437,2.128-0.437,2.128s1.037-1.746,1.582-1.855c0.546-0.108,1.69,0.19,2.025,1.004
		c0.438,1.062,0.648,4.89-0.716,8.055s-2.099,6.668-3.972,8.32c-2.125,1.875-6.05,1.913-7.688,1.75
		c-1.637-0.164-4.333-1.164-6.188-2.938c-1.438-1.375-5.188-8.312-6.272-11.171c-0.429-1.129-1.527-4.802-0.327-5.402
		c1.2-0.6,2.094-0.776,3.35,0.261c1.255,1.036,2.074,3.097,2.25,3.625C14.312,22.041,14.91,23.432,14.91,23.432z"/>
</g>
</svg>
