<?xml version="1.0" encoding="utf-8"?>
<!-- Generator: Adobe Illustrator 16.0.4, SVG Export Plug-In . SVG Version: 6.00 Build 0)  -->
<!DOCTYPE svg PUBLIC "-//W3C//DTD SVG 1.1//EN" "http://www.w3.org/Graphics/SVG/1.1/DTD/svg11.dtd">
<svg version="1.1" id="Livello_1" xmlns="http://www.w3.org/2000/svg" xmlns:xlink="http://www.w3.org/1999/xlink" x="0px" y="0px"
	 width="20px" height="20px" viewBox="0 0 20 20" enable-background="new 0 0 20 20" xml:space="preserve">
<g>
	<path fill="#FFFFFF" d="M10.515,2.248c-0.109-0.189-0.308-0.297-0.514-0.297S9.596,2.059,9.489,2.248L0.871,17.164
		c-0.108,0.186-0.108,0.402,0,0.59s0.307,0.295,0.514,0.295h17.232c0.326,0,0.593-0.266,0.593-0.592
		c0-0.127-0.039-0.236-0.099-0.334L10.515,2.248z M2.41,16.867l7.591-13.143l7.593,13.143H2.41z M2.41,16.867"/>
	<path fill="#FFFFFF" d="M9.399,7.797v4.535c0,0.324,0.267,0.59,0.592,0.59c0.326,0,0.592-0.266,0.592-0.59V7.797
		c0-0.326-0.266-0.594-0.592-0.594C9.666,7.203,9.399,7.471,9.399,7.797L9.399,7.797z M9.399,7.797"/>
	<path fill="#FFFFFF" d="M9.991,13.713c-0.325,0-0.592,0.264-0.592,0.59v0.396c0,0.322,0.267,0.59,0.592,0.59
		c0.326,0,0.592-0.268,0.592-0.59v-0.396C10.583,13.977,10.317,13.713,9.991,13.713L9.991,13.713z M9.991,13.713"/>
</g>
</svg>
