<?xml version="1.0" encoding="utf-8"?>
<!-- Generator: Adobe Illustrator 16.0.4, SVG Export Plug-In . SVG Version: 6.00 Build 0)  -->
<!DOCTYPE svg PUBLIC "-//W3C//DTD SVG 1.1//EN" "http://www.w3.org/Graphics/SVG/1.1/DTD/svg11.dtd">
<svg version="1.1" id="Livello_1" xmlns="http://www.w3.org/2000/svg" xmlns:xlink="http://www.w3.org/1999/xlink" x="0px" y="0px"
	 width="30px" height="30px" viewBox="0 0 30 30" enable-background="new 0 0 30 30" xml:space="preserve">
<g>
	<path fill="#7275A0" d="M15,12.405c0.373,0,0.677-0.305,0.677-0.677V11.05c0-0.37-0.304-0.677-0.677-0.677
		s-0.678,0.307-0.678,0.677v0.679C14.322,12.101,14.627,12.405,15,12.405L15,12.405z M15,12.405"/>
	<path fill="#7275A0" d="M13.646,15.113h0.676v3.837c0,0.372,0.305,0.677,0.678,0.677s0.677-0.305,0.677-0.677v-4.514
		c0-0.372-0.304-0.677-0.677-0.677h-1.354c-0.373,0-0.678,0.305-0.678,0.677S13.273,15.113,13.646,15.113L13.646,15.113z
		 M13.646,15.113"/>
	<path fill="#7275A0" d="M23.801,6.875c0-0.37-0.305-0.676-0.677-0.676H6.876c-0.372,0-0.677,0.306-0.677,0.676v16.249
		c0,0.374,0.305,0.677,0.677,0.677h16.248c0.372,0,0.677-0.303,0.677-0.677V6.875z M22.447,22.447H7.553V7.554h14.895V22.447z
		 M22.447,22.447"/>
</g>
</svg>
